<mxfile host="app.diagrams.net" modified="2024-04-09T09:50:15.257Z" agent="Mozilla/5.0 (X11; Linux x86_64; rv:109.0) Gecko/20100101 Firefox/115.0" etag="bEDkkLb01lhonQ77r__z" version="24.2.3" type="github">
  <diagram name="Page-1" id="H0BkH6CoqtVkSMLi0wsb">
    <mxGraphModel dx="1434" dy="790" grid="1" gridSize="10" guides="1" tooltips="1" connect="1" arrows="1" fold="1" page="1" pageScale="1" pageWidth="850" pageHeight="1100" math="0" shadow="0">
      <root>
        <mxCell id="0" />
        <mxCell id="1" parent="0" />
        <mxCell id="UDt0CbX3Oto0bAiuKoCQ-1" value="Hero" style="swimlane;fontStyle=0;childLayout=stackLayout;horizontal=1;startSize=26;fillColor=none;horizontalStack=0;resizeParent=1;resizeParentMax=0;resizeLast=0;collapsible=1;marginBottom=0;whiteSpace=wrap;html=1;" vertex="1" parent="1">
          <mxGeometry x="480" y="550" width="170" height="260" as="geometry" />
        </mxCell>
        <mxCell id="UDt0CbX3Oto0bAiuKoCQ-2" value="id: PK int autoincrement" style="text;strokeColor=none;fillColor=none;align=left;verticalAlign=top;spacingLeft=4;spacingRight=4;overflow=hidden;rotatable=0;points=[[0,0.5],[1,0.5]];portConstraint=eastwest;whiteSpace=wrap;html=1;" vertex="1" parent="UDt0CbX3Oto0bAiuKoCQ-1">
          <mxGeometry y="26" width="170" height="26" as="geometry" />
        </mxCell>
        <mxCell id="UDt0CbX3Oto0bAiuKoCQ-3" value="RFID: string" style="text;strokeColor=none;fillColor=none;align=left;verticalAlign=top;spacingLeft=4;spacingRight=4;overflow=hidden;rotatable=0;points=[[0,0.5],[1,0.5]];portConstraint=eastwest;whiteSpace=wrap;html=1;" vertex="1" parent="UDt0CbX3Oto0bAiuKoCQ-1">
          <mxGeometry y="52" width="170" height="26" as="geometry" />
        </mxCell>
        <mxCell id="UDt0CbX3Oto0bAiuKoCQ-4" value="Level: int" style="text;strokeColor=none;fillColor=none;align=left;verticalAlign=top;spacingLeft=4;spacingRight=4;overflow=hidden;rotatable=0;points=[[0,0.5],[1,0.5]];portConstraint=eastwest;whiteSpace=wrap;html=1;" vertex="1" parent="UDt0CbX3Oto0bAiuKoCQ-1">
          <mxGeometry y="78" width="170" height="26" as="geometry" />
        </mxCell>
        <mxCell id="UDt0CbX3Oto0bAiuKoCQ-9" value="hero_type: int" style="text;strokeColor=none;fillColor=none;align=left;verticalAlign=top;spacingLeft=4;spacingRight=4;overflow=hidden;rotatable=0;points=[[0,0.5],[1,0.5]];portConstraint=eastwest;whiteSpace=wrap;html=1;" vertex="1" parent="UDt0CbX3Oto0bAiuKoCQ-1">
          <mxGeometry y="104" width="170" height="28" as="geometry" />
        </mxCell>
        <mxCell id="UDt0CbX3Oto0bAiuKoCQ-10" value="unallocated_skillpoints: int" style="text;strokeColor=none;fillColor=none;align=left;verticalAlign=top;spacingLeft=4;spacingRight=4;overflow=hidden;rotatable=0;points=[[0,0.5],[1,0.5]];portConstraint=eastwest;whiteSpace=wrap;html=1;" vertex="1" parent="UDt0CbX3Oto0bAiuKoCQ-1">
          <mxGeometry y="132" width="170" height="38" as="geometry" />
        </mxCell>
        <mxCell id="UDt0CbX3Oto0bAiuKoCQ-5" value="strength_points: int" style="text;strokeColor=none;fillColor=none;align=left;verticalAlign=top;spacingLeft=4;spacingRight=4;overflow=hidden;rotatable=0;points=[[0,0.5],[1,0.5]];portConstraint=eastwest;whiteSpace=wrap;html=1;" vertex="1" parent="UDt0CbX3Oto0bAiuKoCQ-1">
          <mxGeometry y="170" width="170" height="30" as="geometry" />
        </mxCell>
        <mxCell id="UDt0CbX3Oto0bAiuKoCQ-11" value="agility_points: int" style="text;strokeColor=none;fillColor=none;align=left;verticalAlign=top;spacingLeft=4;spacingRight=4;overflow=hidden;rotatable=0;points=[[0,0.5],[1,0.5]];portConstraint=eastwest;whiteSpace=wrap;html=1;" vertex="1" parent="UDt0CbX3Oto0bAiuKoCQ-1">
          <mxGeometry y="200" width="170" height="30" as="geometry" />
        </mxCell>
        <mxCell id="UDt0CbX3Oto0bAiuKoCQ-13" value="defence_points: int" style="text;strokeColor=none;fillColor=none;align=left;verticalAlign=top;spacingLeft=4;spacingRight=4;overflow=hidden;rotatable=0;points=[[0,0.5],[1,0.5]];portConstraint=eastwest;whiteSpace=wrap;html=1;" vertex="1" parent="UDt0CbX3Oto0bAiuKoCQ-1">
          <mxGeometry y="230" width="170" height="30" as="geometry" />
        </mxCell>
        <mxCell id="UDt0CbX3Oto0bAiuKoCQ-14" value="Finished_matches" style="swimlane;fontStyle=0;childLayout=stackLayout;horizontal=1;startSize=26;fillColor=none;horizontalStack=0;resizeParent=1;resizeParentMax=0;resizeLast=0;collapsible=1;marginBottom=0;whiteSpace=wrap;html=1;" vertex="1" parent="1">
          <mxGeometry x="110" y="640" width="140" height="130" as="geometry" />
        </mxCell>
        <mxCell id="UDt0CbX3Oto0bAiuKoCQ-15" value="id: PK int autoincrement" style="text;strokeColor=none;fillColor=none;align=left;verticalAlign=top;spacingLeft=4;spacingRight=4;overflow=hidden;rotatable=0;points=[[0,0.5],[1,0.5]];portConstraint=eastwest;whiteSpace=wrap;html=1;" vertex="1" parent="UDt0CbX3Oto0bAiuKoCQ-14">
          <mxGeometry y="26" width="140" height="26" as="geometry" />
        </mxCell>
        <mxCell id="UDt0CbX3Oto0bAiuKoCQ-16" value="hero_1: FK Hero.id int" style="text;strokeColor=none;fillColor=none;align=left;verticalAlign=top;spacingLeft=4;spacingRight=4;overflow=hidden;rotatable=0;points=[[0,0.5],[1,0.5]];portConstraint=eastwest;whiteSpace=wrap;html=1;" vertex="1" parent="UDt0CbX3Oto0bAiuKoCQ-14">
          <mxGeometry y="52" width="140" height="26" as="geometry" />
        </mxCell>
        <mxCell id="UDt0CbX3Oto0bAiuKoCQ-17" value="hero_2: FK Hero.id int" style="text;strokeColor=none;fillColor=none;align=left;verticalAlign=top;spacingLeft=4;spacingRight=4;overflow=hidden;rotatable=0;points=[[0,0.5],[1,0.5]];portConstraint=eastwest;whiteSpace=wrap;html=1;" vertex="1" parent="UDt0CbX3Oto0bAiuKoCQ-14">
          <mxGeometry y="78" width="140" height="26" as="geometry" />
        </mxCell>
        <mxCell id="UDt0CbX3Oto0bAiuKoCQ-18" value="winner: FK Hero.id int" style="text;strokeColor=none;fillColor=none;align=left;verticalAlign=top;spacingLeft=4;spacingRight=4;overflow=hidden;rotatable=0;points=[[0,0.5],[1,0.5]];portConstraint=eastwest;whiteSpace=wrap;html=1;" vertex="1" parent="UDt0CbX3Oto0bAiuKoCQ-14">
          <mxGeometry y="104" width="140" height="26" as="geometry" />
        </mxCell>
        <mxCell id="UDt0CbX3Oto0bAiuKoCQ-19" style="edgeStyle=orthogonalEdgeStyle;rounded=0;orthogonalLoop=1;jettySize=auto;html=1;entryX=0;entryY=0.5;entryDx=0;entryDy=0;startArrow=ERmany;startFill=0;endArrow=ERone;endFill=0;" edge="1" parent="1" source="UDt0CbX3Oto0bAiuKoCQ-16" target="UDt0CbX3Oto0bAiuKoCQ-2">
          <mxGeometry relative="1" as="geometry" />
        </mxCell>
        <mxCell id="UDt0CbX3Oto0bAiuKoCQ-20" style="edgeStyle=orthogonalEdgeStyle;rounded=0;orthogonalLoop=1;jettySize=auto;html=1;exitX=1;exitY=0.5;exitDx=0;exitDy=0;entryX=0;entryY=0.5;entryDx=0;entryDy=0;startArrow=ERmany;startFill=0;endArrow=ERone;endFill=0;" edge="1" parent="1" source="UDt0CbX3Oto0bAiuKoCQ-17" target="UDt0CbX3Oto0bAiuKoCQ-2">
          <mxGeometry relative="1" as="geometry" />
        </mxCell>
        <mxCell id="UDt0CbX3Oto0bAiuKoCQ-21" style="edgeStyle=orthogonalEdgeStyle;rounded=0;orthogonalLoop=1;jettySize=auto;html=1;entryX=0;entryY=0.5;entryDx=0;entryDy=0;startArrow=ERmany;startFill=0;endArrow=ERone;endFill=0;" edge="1" parent="1" source="UDt0CbX3Oto0bAiuKoCQ-18" target="UDt0CbX3Oto0bAiuKoCQ-2">
          <mxGeometry relative="1" as="geometry" />
        </mxCell>
        <mxCell id="UDt0CbX3Oto0bAiuKoCQ-22" value="Finished_matches" style="swimlane;fontStyle=0;childLayout=stackLayout;horizontal=1;startSize=26;fillColor=none;horizontalStack=0;resizeParent=1;resizeParentMax=0;resizeLast=0;collapsible=1;marginBottom=0;whiteSpace=wrap;html=1;" vertex="1" parent="1">
          <mxGeometry x="110" y="60" width="140" height="52" as="geometry" />
        </mxCell>
        <mxCell id="UDt0CbX3Oto0bAiuKoCQ-27" value="Hero" style="swimlane;fontStyle=0;childLayout=stackLayout;horizontal=1;startSize=26;fillColor=none;horizontalStack=0;resizeParent=1;resizeParentMax=0;resizeLast=0;collapsible=1;marginBottom=0;whiteSpace=wrap;html=1;" vertex="1" parent="1">
          <mxGeometry x="480" y="70" width="140" height="52" as="geometry" />
        </mxCell>
        <mxCell id="UDt0CbX3Oto0bAiuKoCQ-36" value="Hero" style="swimlane;fontStyle=0;childLayout=stackLayout;horizontal=1;startSize=26;fillColor=none;horizontalStack=0;resizeParent=1;resizeParentMax=0;resizeLast=0;collapsible=1;marginBottom=0;whiteSpace=wrap;html=1;" vertex="1" parent="1">
          <mxGeometry x="450" y="200" width="170" height="260" as="geometry" />
        </mxCell>
        <mxCell id="UDt0CbX3Oto0bAiuKoCQ-37" value="id:&amp;nbsp; int " style="text;strokeColor=none;fillColor=none;align=left;verticalAlign=top;spacingLeft=4;spacingRight=4;overflow=hidden;rotatable=0;points=[[0,0.5],[1,0.5]];portConstraint=eastwest;whiteSpace=wrap;html=1;" vertex="1" parent="UDt0CbX3Oto0bAiuKoCQ-36">
          <mxGeometry y="26" width="170" height="26" as="geometry" />
        </mxCell>
        <mxCell id="UDt0CbX3Oto0bAiuKoCQ-38" value="RFID: string" style="text;strokeColor=none;fillColor=none;align=left;verticalAlign=top;spacingLeft=4;spacingRight=4;overflow=hidden;rotatable=0;points=[[0,0.5],[1,0.5]];portConstraint=eastwest;whiteSpace=wrap;html=1;" vertex="1" parent="UDt0CbX3Oto0bAiuKoCQ-36">
          <mxGeometry y="52" width="170" height="26" as="geometry" />
        </mxCell>
        <mxCell id="UDt0CbX3Oto0bAiuKoCQ-39" value="Level: int" style="text;strokeColor=none;fillColor=none;align=left;verticalAlign=top;spacingLeft=4;spacingRight=4;overflow=hidden;rotatable=0;points=[[0,0.5],[1,0.5]];portConstraint=eastwest;whiteSpace=wrap;html=1;" vertex="1" parent="UDt0CbX3Oto0bAiuKoCQ-36">
          <mxGeometry y="78" width="170" height="26" as="geometry" />
        </mxCell>
        <mxCell id="UDt0CbX3Oto0bAiuKoCQ-40" value="hero_type: int" style="text;strokeColor=none;fillColor=none;align=left;verticalAlign=top;spacingLeft=4;spacingRight=4;overflow=hidden;rotatable=0;points=[[0,0.5],[1,0.5]];portConstraint=eastwest;whiteSpace=wrap;html=1;" vertex="1" parent="UDt0CbX3Oto0bAiuKoCQ-36">
          <mxGeometry y="104" width="170" height="28" as="geometry" />
        </mxCell>
        <mxCell id="UDt0CbX3Oto0bAiuKoCQ-41" value="unallocated_skillpoints: int" style="text;strokeColor=none;fillColor=none;align=left;verticalAlign=top;spacingLeft=4;spacingRight=4;overflow=hidden;rotatable=0;points=[[0,0.5],[1,0.5]];portConstraint=eastwest;whiteSpace=wrap;html=1;" vertex="1" parent="UDt0CbX3Oto0bAiuKoCQ-36">
          <mxGeometry y="132" width="170" height="38" as="geometry" />
        </mxCell>
        <mxCell id="UDt0CbX3Oto0bAiuKoCQ-42" value="strength_points: int" style="text;strokeColor=none;fillColor=none;align=left;verticalAlign=top;spacingLeft=4;spacingRight=4;overflow=hidden;rotatable=0;points=[[0,0.5],[1,0.5]];portConstraint=eastwest;whiteSpace=wrap;html=1;" vertex="1" parent="UDt0CbX3Oto0bAiuKoCQ-36">
          <mxGeometry y="170" width="170" height="30" as="geometry" />
        </mxCell>
        <mxCell id="UDt0CbX3Oto0bAiuKoCQ-43" value="agility_points: int" style="text;strokeColor=none;fillColor=none;align=left;verticalAlign=top;spacingLeft=4;spacingRight=4;overflow=hidden;rotatable=0;points=[[0,0.5],[1,0.5]];portConstraint=eastwest;whiteSpace=wrap;html=1;" vertex="1" parent="UDt0CbX3Oto0bAiuKoCQ-36">
          <mxGeometry y="200" width="170" height="30" as="geometry" />
        </mxCell>
        <mxCell id="UDt0CbX3Oto0bAiuKoCQ-44" value="defence_points: int" style="text;strokeColor=none;fillColor=none;align=left;verticalAlign=top;spacingLeft=4;spacingRight=4;overflow=hidden;rotatable=0;points=[[0,0.5],[1,0.5]];portConstraint=eastwest;whiteSpace=wrap;html=1;" vertex="1" parent="UDt0CbX3Oto0bAiuKoCQ-36">
          <mxGeometry y="230" width="170" height="30" as="geometry" />
        </mxCell>
        <mxCell id="UDt0CbX3Oto0bAiuKoCQ-45" value="Finished_matches" style="swimlane;fontStyle=0;childLayout=stackLayout;horizontal=1;startSize=26;fillColor=none;horizontalStack=0;resizeParent=1;resizeParentMax=0;resizeLast=0;collapsible=1;marginBottom=0;whiteSpace=wrap;html=1;" vertex="1" parent="1">
          <mxGeometry x="120" y="220" width="140" height="130" as="geometry" />
        </mxCell>
        <mxCell id="UDt0CbX3Oto0bAiuKoCQ-46" value="id: int " style="text;strokeColor=none;fillColor=none;align=left;verticalAlign=top;spacingLeft=4;spacingRight=4;overflow=hidden;rotatable=0;points=[[0,0.5],[1,0.5]];portConstraint=eastwest;whiteSpace=wrap;html=1;" vertex="1" parent="UDt0CbX3Oto0bAiuKoCQ-45">
          <mxGeometry y="26" width="140" height="26" as="geometry" />
        </mxCell>
        <mxCell id="UDt0CbX3Oto0bAiuKoCQ-47" value="hero_1: int" style="text;strokeColor=none;fillColor=none;align=left;verticalAlign=top;spacingLeft=4;spacingRight=4;overflow=hidden;rotatable=0;points=[[0,0.5],[1,0.5]];portConstraint=eastwest;whiteSpace=wrap;html=1;" vertex="1" parent="UDt0CbX3Oto0bAiuKoCQ-45">
          <mxGeometry y="52" width="140" height="26" as="geometry" />
        </mxCell>
        <mxCell id="UDt0CbX3Oto0bAiuKoCQ-48" value="hero_2: int" style="text;strokeColor=none;fillColor=none;align=left;verticalAlign=top;spacingLeft=4;spacingRight=4;overflow=hidden;rotatable=0;points=[[0,0.5],[1,0.5]];portConstraint=eastwest;whiteSpace=wrap;html=1;" vertex="1" parent="UDt0CbX3Oto0bAiuKoCQ-45">
          <mxGeometry y="78" width="140" height="26" as="geometry" />
        </mxCell>
        <mxCell id="UDt0CbX3Oto0bAiuKoCQ-49" value="winner:  int" style="text;strokeColor=none;fillColor=none;align=left;verticalAlign=top;spacingLeft=4;spacingRight=4;overflow=hidden;rotatable=0;points=[[0,0.5],[1,0.5]];portConstraint=eastwest;whiteSpace=wrap;html=1;" vertex="1" parent="UDt0CbX3Oto0bAiuKoCQ-45">
          <mxGeometry y="104" width="140" height="26" as="geometry" />
        </mxCell>
        <mxCell id="UDt0CbX3Oto0bAiuKoCQ-50" style="edgeStyle=orthogonalEdgeStyle;rounded=0;orthogonalLoop=1;jettySize=auto;html=1;" edge="1" parent="1" source="UDt0CbX3Oto0bAiuKoCQ-47" target="UDt0CbX3Oto0bAiuKoCQ-37">
          <mxGeometry relative="1" as="geometry" />
        </mxCell>
        <mxCell id="UDt0CbX3Oto0bAiuKoCQ-51" style="edgeStyle=orthogonalEdgeStyle;rounded=0;orthogonalLoop=1;jettySize=auto;html=1;" edge="1" parent="1" source="UDt0CbX3Oto0bAiuKoCQ-48" target="UDt0CbX3Oto0bAiuKoCQ-37">
          <mxGeometry relative="1" as="geometry" />
        </mxCell>
        <mxCell id="UDt0CbX3Oto0bAiuKoCQ-52" style="edgeStyle=orthogonalEdgeStyle;rounded=0;orthogonalLoop=1;jettySize=auto;html=1;" edge="1" parent="1" source="UDt0CbX3Oto0bAiuKoCQ-49" target="UDt0CbX3Oto0bAiuKoCQ-37">
          <mxGeometry relative="1" as="geometry" />
        </mxCell>
        <mxCell id="UDt0CbX3Oto0bAiuKoCQ-53" value="All fields cannot be null" style="text;html=1;align=center;verticalAlign=middle;whiteSpace=wrap;rounded=0;" vertex="1" parent="1">
          <mxGeometry x="350" y="510" width="60" height="40" as="geometry" />
        </mxCell>
      </root>
    </mxGraphModel>
  </diagram>
</mxfile>
